PathFileType	4	(X/Y/Z)	Kaydara																																																																																																																									
DataRate	CameraRate	NumFrames	NumMarkers	Units	OrigDataRate	OrigDataStartFrame	OrigNumFrames																																																																																																																					
30	30	6	41	mm	30	45	179																																																																																																																					
Frame#	Time	EMLA_LFHD			EMLA_RFHD			EMLA_LBHD			EMLA_RBHD			EMLA_LFTShould			EMLA_RFTShould			EMLA_LRRShould			EMLA_RRRShould			EMLA_T10			EMLA_STRN			EMLA_TRUN			EMLA_LSHO			EMLA_LUPA			EMLA_LELB			EMLA_LFRM			EMLA_LWRA			EMLA_LWRB			EMLA_LFIN			EMLA_RSHO			EMLA_RUPA			EMLA_RELB			EMLA_RFRM			EMLA_RWRA			EMLA_RWRB			EMLA_RFIN			EMLA_LFWT			EMLA_RFWT			EMLA_LBWT			EMLA_RBWT			EMLA_LTHI			EMLA_LKNE			EMLA_LSHN			EMLA_LANK			EMLA_LHEE			EMLA_LTOE			EMLA_RTHI			EMLA_RKNE			EMLA_RSHN			EMLA_RANK			EMLA_RHEE			EMLA_RTOE		
		X1	Y1	Z1	X2	Y2	Z2	X3	Y3	Z3	X4	Y4	Z4	X5	Y5	Z5	X6	Y6	Z6	X7	Y7	Z7	X8	Y8	Z8	X9	Y9	Z9	X10	Y10	Z10	X11	Y11	Z11	X12	Y12	Z12	X13	Y13	Z13	X14	Y14	Z14	X15	Y15	Z15	X16	Y16	Z16	X17	Y17	Z17	X18	Y18	Z18	X19	Y19	Z19	X20	Y20	Z20	X21	Y21	Z21	X22	Y22	Z22	X23	Y23	Z23	X24	Y24	Z24	X25	Y25	Z25	X26	Y26	Z26	X27	Y27	Z27	X28	Y28	Z28	X29	Y29	Z29	X30	Y30	Z30	X31	Y31	Z31	X32	Y32	Z32	X33	Y33	Z33	X34	Y34	Z34	X35	Y35	Z35	X36	Y36	Z36	X37	Y37	Z37	X38	Y38	Z38	X39	Y39	Z39	X40	Y40	Z40	X41	Y41	Z41
																																																																																																																												
45	1.477	236.8697	1642.02133	-1914.2955	66.92662	1640.01572	-1918.2843	253.97146	1627.07855	-2064.32007	59.33729	1627.82043	-2070.6131	238.54801	1412.75482	-1961.29669	89.97022	1401.67526	-1959.51721	232.38552	1447.3848	-2112.12845	76.17691	1436.13541	-2110.26779	169.75277	1267.96455	-2143.3847	164.16842	1345.14267	-1917.17575	160.67497	1243.66646	-1889.32663	363.09631	1431.58798	-2013.67523	418.45032	1248.07404	-2013.80234	433.66241	1103.38295	-2005.47318	432.34409	967.36069	-1989.59198	348.40206	831.931	-1898.43521	406.57902	806.25816	-1954.6344	398.55896	778.88916	-1890.56213	-32.06947	1423.53165	-2026.46332	-82.99953	1228.3902	-2012.10281	-94.65357	1081.09146	-2019.83429	-92.63596	981.0183	-2017.12921	-20.6018	831.2635	-1902.24915	-68.9018	805.22514	-1967.40402	-77.66294	779.7876	-1908.11798	267.74065	993.48038	-1900.76492	32.17588	982.04781	-1921.38031	251.6198	1015.1075	-2100.64377	76.97784	1015.19257	-2100.57251	302.85631	726.4312	-2086.33957	304.63705	523.51593	-2046.24573	278.14968	343.21896	-2037.55035	284.97387	166.28412	-2110.49896	222.83703	84.35372	-2171.74271	248.16345	73.81524	-1971.44211	50.55369	717.52289	-2115.41153	24.02988	514.42917	-2054.72916	75.56842	294.65233	-2046.15494	44.6761	131.20406	-2124.53796	103.7479	77.26009	-2174.88388	67.91955	71.0586	-1973.96988
46	1.51	237.17503	1642.11975	-1914.50378	67.27587	1640.06973	-1918.43506	254.22592	1627.06955	-2064.52881	59.57412	1627.79434	-2070.73532	238.64271	1412.70355	-1961.36917	90.15234	1401.80939	-1959.65103	232.62781	1447.43347	-2112.18781	76.42654	1436.26129	-2110.43533	169.95304	1268.0648	-2143.5672	164.27158	1345.20294	-1917.27112	160.85789	1243.82736	-1889.42581	363.29964	1431.59515	-2013.73901	418.60752	1248.07022	-2013.77838	433.84209	1103.38364	-2005.41473	432.54448	967.44698	-1989.47998	348.57635	832.04704	-1898.20465	406.74496	806.33774	-1954.41315	398.72505	778.9814	-1890.27618	-31.83228	1423.65692	-2026.56281	-82.78101	1228.55446	-2012.28622	-94.57999	1081.27396	-2019.99634	-92.66097	981.17722	-2017.26974	-20.75767	831.38412	-1902.56989	-69.09602	805.44952	-1967.6683	-77.85443	779.96719	-1908.34	267.80396	993.49861	-1900.99487	32.20693	982.0137	-1921.67847	251.79911	1015.08926	-2100.78705	77.16157	1015.21423	-2100.80856	302.99835	726.37497	-2086.38794	304.72027	523.49621	-2046.2146	278.20456	343.22182	-2037.53952	285.02323	166.31134	-2110.4985	222.85345	84.39639	-2171.73996	248.14678	73.80362	-1971.45309	50.71337	717.4614	-2115.4715	24.09504	514.46983	-2054.73267	75.60031	294.62759	-2046.16791	44.70571	131.22255	-2124.55963	103.76432	77.22567	-2174.87991	67.94124	71.05267	-1973.99002
47	1.543	237.35758	1642.01965	-1914.6019	67.54519	1640.08774	-1918.6293	254.70982	1627.06009	-2064.75601	59.83781	1627.8833	-2070.97916	238.97293	1412.86469	-1961.59134	90.63692	1402.04651	-1959.52286	232.93779	1447.41531	-2112.38983	76.67885	1436.27121	-2110.57693	170.19606	1268.06328	-2143.71262	164.59402	1345.35873	-1917.31247	160.96455	1243.88214	-1889.46213	363.50025	1431.59515	-2013.84094	418.83842	1248.07915	-2013.68225	434.05563	1103.36037	-2005.24902	432.72392	967.49962	-1989.30893	348.57834	832.08473	-1898.00034	406.81511	806.33614	-1954.12186	398.70159	779.05418	-1889.9646	-31.59859	1423.77304	-2026.68503	-82.64653	1228.75313	-2012.57431	-94.58067	1081.42281	-2020.1442	-92.73175	981.33751	-2017.41547	-20.80187	831.50284	-1902.65503	-69.19682	805.51712	-1967.74353	-77.97305	780.0769	-1908.44055	267.94678	993.44666	-1901.05408	32.41091	982.09381	-1921.77307	252.02499	1015.10338	-2100.84885	77.33588	1015.23514	-2100.91858	303.07184	726.43257	-2086.50574	304.75679	523.45852	-2046.32614	278.25354	343.23795	-2037.63733	285.02462	166.32793	-2110.53146	222.87138	84.39054	-2171.76559	248.16862	73.81225	-1971.45844	50.94837	717.38113	-2115.41534	24.22686	514.47952	-2054.82162	75.61584	294.66194	-2046.17508	44.80352	131.02213	-2124.78226	103.76994	77.24053	-2174.88861	67.94053	71.05884	-1973.99261
48	1.577	237.64263	1641.95831	-1914.74243	67.77099	1640.02853	-1918.81821	254.88535	1627.13684	-2064.8378	60.19003	1627.89948	-2071.1731	239.27748	1413.06335	-1961.70822	91.07276	1402.14859	-1959.64447	233.19542	1447.48184	-2112.7272	76.95586	1436.24115	-2110.79117	170.4966	1268.01506	-2143.82736	164.80589	1345.53314	-1917.34238	161.07635	1244.08989	-1889.40979	363.77102	1431.60721	-2013.93036	419.14284	1248.1147	-2013.65662	434.26018	1103.37875	-2005.05585	432.83165	967.44942	-1989.02283	348.53813	832.20383	-1897.76199	406.83125	806.36093	-1953.81851	398.65894	779.12964	-1889.68094	-31.36584	1423.86993	-2026.97128	-82.48409	1228.75534	-2012.56256	-94.52716	1081.51901	-2020.14877	-92.68625	981.43387	-2017.4115	-20.89056	831.58997	-1902.71637	-69.29861	805.62683	-1967.76871	-78.04282	780.1828	-1908.46176	268.2201	993.48541	-1901.15173	32.61976	982.11334	-1921.80954	252.25786	1015.13069	-2100.83496	77.56031	1015.24979	-2100.9433	303.15144	726.40839	-2086.59607	304.87947	523.48553	-2046.52832	278.31566	343.27396	-2037.76093	285.02981	166.30907	-2110.58212	222.86673	84.35162	-2171.79047	248.15334	73.81238	-1971.45569	51.19893	717.23976	-2115.19455	24.38523	514.45946	-2054.83734	75.65266	294.67031	-2046.21429	44.74397	131.28078	-2124.58496	103.79557	77.23327	-2174.90768	67.91562	71.03343	-1973.97964
49	1.61	237.94632	1641.9664	-1914.8587	68.03805	1640.05554	-1918.89618	255.18059	1627.12921	-2064.93744	60.52011	1627.94388	-2071.29562	239.39318	1413.03589	-1961.75873	91.29797	1402.12555	-1959.88419	233.50676	1447.40768	-2112.7597	77.23544	1436.26358	-2110.98145	170.793	1268.00156	-2143.90625	165.13788	1345.36255	-1917.39227	161.34245	1244.19327	-1889.38065	364.02653	1431.63712	-2013.95538	419.35875	1248.16917	-2013.55209	434.468	1103.39867	-2004.93271	432.91988	967.42203	-1988.76556	348.47824	832.31369	-1897.60483	406.84635	806.41342	-1953.50708	398.52226	779.17496	-1889.32343	-31.12118	1423.9566	-2027.16553	-82.28783	1228.97667	-2012.80487	-94.36504	1081.64513	-2020.21851	-92.58013	981.55273	-2017.41547	-20.72671	831.61179	-1902.64496	-69.30237	805.73257	-1967.65762	-78.13822	780.34325	-1908.37997	268.42587	993.50075	-1901.3028	32.76962	982.03728	-1921.89087	252.48592	1015.10643	-2100.90912	77.77522	1015.24643	-2100.95291	303.40643	726.38916	-2086.58966	305.03103	523.47515	-2046.54907	278.40378	343.27137	-2037.74521	285.07732	166.32534	-2110.58884	222.88069	84.37126	-2171.77933	248.1649	73.81175	-1971.4389	51.35843	717.23549	-2115.09399	24.51093	514.49028	-2054.78302	75.76232	294.67182	-2046.2204	44.78096	131.25137	-2124.59686	103.83538	77.26065	-2174.87625	67.91093	71.05933	-1973.97522
50	1.643	238.12181	1641.93558	-1914.8996	68.17156	1640.06973	-1919.0303	255.481	1627.17056	-2065.02502	60.76925	1627.95883	-2071.39313	239.68611	1413.15491	-1961.82816	91.59759	1402.14218	-1960.01862	233.87173	1447.46719	-2112.83264	77.53366	1436.30005	-2111.0791	171.1161	1268.04688	-2143.93814	165.13634	1345.69382	-1917.47192	161.5769	1244.31091	-1889.31122	364.31271	1431.67313	-2013.90427	419.63829	1248.15041	-2013.43475	434.64188	1103.36159	-2004.7345	433.0621	967.47894	-1988.55774	348.47141	832.43401	-1897.30942	406.82407	806.41212	-1953.14651	398.51803	779.26208	-1889.02435	-30.83455	1424.04648	-2027.30652	-82.05813	1229.13422	-2012.95898	-94.16162	1081.73737	-2020.1828	-92.38288	981.64009	-2017.36374	-20.86672	831.82816	-1902.33856	-69.20129	805.84465	-1967.4469	-78.11231	780.54199	-1908.15933	268.71655	993.53867	-1901.20407	33.10866	982.10854	-1921.86401	252.73413	1015.06294	-2100.96191	78.01349	1015.24811	-2101.03165	303.62585	726.32118	-2086.50681	305.16424	523.43697	-2046.40884	278.49215	343.21663	-2037.66739	285.11618	166.2958	-2110.56305	222.91063	84.38973	-2171.76163	248.17167	73.8106	-1971.4241	51.4852	717.25746	-2115.0972	24.64238	514.5282	-2054.71771	75.82909	294.67766	-2046.1322	44.79322	131.2564	-2124.57397	103.78629	77.24908	-2174.91135	67.93738	71.04778	-1973.96973
